<?xml version="1.0" encoding="utf-8"?>
<!-- Generator: Adobe Illustrator 25.4.1, SVG Export Plug-In . SVG Version: 6.00 Build 0)  -->
<svg version="1.1" id="Layer_1" xmlns="http://www.w3.org/2000/svg" xmlns:xlink="http://www.w3.org/1999/xlink" x="0px" y="0px"
	 viewBox="0 0 314 150.9" style="enable-background:new 0 0 314 150.9;" xml:space="preserve">
<style type="text/css">
	.st0{fill:#3B9CBA;}
	.st1{fill:#D48028;}
	.st2{fill:#3FA648;}
	.st3{fill:#ED5F5B;}
	.st4{fill:#6F787E;}
	.st5{fill:none;stroke:#6F787E;stroke-miterlimit:10;}
	.st6{fill:none;stroke:#D48028;stroke-miterlimit:10;}
	.st7{font-family:'RobotoMonoForPowerline-Regular';}
	.st8{font-size:11px;}
	.st9{fill:none;stroke:#3B9CBA;stroke-miterlimit:10;}
</style>
<rect x="157.9" y="-61.9" class="st0" width="107.7" height="42.5"/>
<rect x="394.6" y="-63.3" class="st1" width="107.7" height="42.5"/>
<rect x="276.2" y="-61.9" class="st2" width="107.7" height="42.5"/>
<rect x="41" y="-61.9" class="st3" width="107.7" height="42.5"/>
<rect x="-75.9" y="-63.3" class="st4" width="107.7" height="42.5"/>
<rect x="45.3" y="30.7" class="st5" width="76.4" height="76.4"/>
<g>
	<g>
		<line class="st6" x1="67.8" y1="107" x2="93.9" y2="107"/>
		<g>
			<polygon class="st1" points="92.5,112 101.1,107 92.5,102.1 			"/>
		</g>
	</g>
</g>
<line class="st6" x1="83.5" y1="25.6" x2="83.5" y2="36.5"/>
<line class="st6" x1="83.5" y1="101.6" x2="83.5" y2="112.5"/>
<line class="st6" x1="50.7" y1="68.9" x2="39.8" y2="68.9"/>
<line class="st6" x1="127.1" y1="68.9" x2="116.2" y2="68.9"/>
<g>
	<circle class="st6" cx="45.3" cy="107" r="6.4"/>
	<circle class="st1" cx="45.3" cy="107" r="2.1"/>
</g>
<g>
	<g>
		<line class="st6" x1="45.3" y1="85.5" x2="45.3" y2="59.4"/>
		<g>
			<polygon class="st1" points="50.3,60.8 45.3,52.2 40.3,60.8 			"/>
		</g>
	</g>
</g>
<g>
	<g>
		<line class="st6" x1="28.6" y1="68.9" x2="54.8" y2="68.9"/>
		<g>
			<polygon class="st1" points="53.3,73.9 62,68.9 53.3,63.9 			"/>
		</g>
	</g>
</g>
<g>
	<g>
		<line class="st6" x1="83.5" y1="123.7" x2="83.5" y2="97.5"/>
		<g>
			<polygon class="st1" points="88.5,99 83.5,90.4 78.5,99 			"/>
		</g>
	</g>
</g>
<text transform="matrix(1 0 0 1 87.4292 43.8125)" class="st4 st7 st8">(i,j)</text>
<rect x="151.1" y="29.9" class="st5" width="76.4" height="76.4"/>
<line class="st6" x1="189.3" y1="24.8" x2="189.3" y2="35.7"/>
<line class="st6" x1="189.3" y1="100.8" x2="189.3" y2="111.8"/>
<line class="st6" x1="156.5" y1="68.1" x2="145.6" y2="68.1"/>
<line class="st6" x1="232.9" y1="68.1" x2="222" y2="68.1"/>
<g>
	<circle class="st6" cx="189.3" cy="68.1" r="6.4"/>
	<circle class="st1" cx="189.3" cy="68.1" r="2.1"/>
</g>
<line class="st9" x1="134.4" y1="68.1" x2="167.7" y2="68.1"/>
<line class="st9" x1="189.3" y1="123" x2="189.3" y2="89.6"/>
<text transform="matrix(1 0 0 1 193.2112 43.0668)" class="st4 st7 st8">(i,j)</text>
</svg>
